<svg xmlns="http://www.w3.org/2000/svg" width="674" height="396" viewBox="0 0 674 396">
  <style type="text/css">
    .rect {
    fill: url(#linear-gradient);
    }
  </style>
  <defs>
    <linearGradient id="linear-gradient">
      <stop offset="0%" stop-color="#009cdc" />
      <stop offset="33%" stop-color="#009cdc" />
      <stop offset="50%" stop-color="#0cadf0" />
      <stop offset="67%" stop-color="#009cdc" />
      <stop offset="100%" stop-color="#009cdc" />
      <animateTransform attributeName="gradientTransform"
                        type="translate"
                        from="-1 0"
                        to="1 0"
                        begin="0s"
                        dur="1.5s"
                        repeatCount="indefinite"/>
    </linearGradient>
  </defs>
  <g id="console_it_logo2-01_Converted_" data-name="console it logo2-01 [Converted]" transform="translate(0.041 -0.004)">
    <path class="rect"  id="Path_1" data-name="Path 1" d="M312.806,112.87H420.4c2.223,0,2.223,0,2.223,2.223V262.726a9.386,9.386,0,0,1-3.016,7.178c-1.656,1.557-3.341,3.086-5.125,4.488a6.6,6.6,0,0,1-2.747,1.161,33.451,33.451,0,0,1-6.541,1.034q-92.986.085-186.014,0a15.148,15.148,0,0,1-10.76-4.46,25.6,25.6,0,0,1-4.658-5.889,7.079,7.079,0,0,1-.892-3.893V115.107c0-2.209,0-2.209,2.265-2.209h107.7Zm-15.417,53.572a11.852,11.852,0,0,0-1.217-1.84q-22.227-22.255-44.5-44.5c-1.331-1.331-2.138-1.331-3.454,0-4.318,4.247-8.579,8.664-12.968,12.9a2.449,2.449,0,0,0,0,3.95c9.358,9.245,18.631,18.574,27.932,27.876,1.586,1.571,1.586,1.586,0,3.171l-28.017,28c-1.416,1.416-1.416,2.194,0,3.568l13.265,13.251a1.925,1.925,0,0,0,3.129,0Q274.043,190.4,296.5,167.914a9.908,9.908,0,0,0,.892-1.472Zm31.33,31.3H298.875c-1.954,0-2.067.127-2.067,2.1v12.034c0,1.94.127,2.067,2.081,2.067h59.093c2.407,0,2.407,0,2.407-2.478V199.881c0-2.1,0-2.152-2.109-2.152Z" transform="translate(23.945 41.84)" fill="#009cdc"/>
    <path class="rect" id="Path_2" data-name="Path 2" d="M532.49,133.4c2.916-.241,5.663-.595,8.325-.637,5.536-.1,11.071-.127,16.607,0a57.942,57.942,0,0,1,6.541.991,33.226,33.226,0,0,1,3.61.311c4.842,1.26,9.684,2.534,14.469,3.992a37.1,37.1,0,0,1,5.776,2.619c4.162,2.124,8.41,4.134,12.416,6.555a86.772,86.772,0,0,1,9.8,7.079c3.794,3.1,7.433,6.385,10.958,9.783a41.854,41.854,0,0,1,4.516,5.663c2.831,3.893,5.663,7.716,8.169,11.807a98.224,98.224,0,0,1,6.017,12.473,102.034,102.034,0,0,1,4.644,15.148,128.217,128.217,0,0,1,2.01,12.954c2.832.5,6.059.878,9.2,1.685a76.55,76.55,0,0,1,12.869,3.964,96.273,96.273,0,0,1,11.552,5.875,83.655,83.655,0,0,1,13.52,10.689c3.044,2.931,6.357,5.776,8.495,9.613,1.416,2.591,3.44,4.87,4.856,7.475,1.685,3.086,2.831,6.427,4.516,9.542a48.588,48.588,0,0,1,3.483,10.434c2.308,8.749,2.223,17.654,1.855,26.545a84.036,84.036,0,0,1-2.435,13.506,46.317,46.317,0,0,1-2.194,7.687,61.954,61.954,0,0,1-4.247,8.636,109.488,109.488,0,0,1-7.6,11.637,87.756,87.756,0,0,1-8.494,8.848,59.775,59.775,0,0,1-6.7,5.663c-2.562,1.855-5.38,3.355-8.084,5.012-.949.58-1.84,1.26-2.832,1.77a73.791,73.791,0,0,1-17.937,6.371A92.5,92.5,0,0,1,636.618,379H557.549c-1.982,0-2,0-2-2.01v-3.5c0-1.161.3-1.416,1.3-1.416h1.515q40.837,0,81.674-.071a80.218,80.218,0,0,0,10.618-1.416c.453,0,.892-.227,1.345-.255a42.473,42.473,0,0,0,13.28-3.7,71.3,71.3,0,0,0,19.4-11.779,67.956,67.956,0,0,0,12.954-14.4,103.75,103.75,0,0,0,6.88-12.742,54.137,54.137,0,0,0,2.619-7.843c.694-2.35,1.288-4.729,1.925-7.079a4.24,4.24,0,0,0,.17-.736,77.731,77.731,0,0,0,.708-17.1,64.37,64.37,0,0,0-1.557-8.268c-.453-2.265-.878-4.53-1.416-6.767a37.172,37.172,0,0,0-1.628-4.5c-.807-1.94-1.614-3.879-2.562-5.748-1.246-2.449-2.577-4.87-3.964-7.249a53.584,53.584,0,0,0-10.363-12.742,137.567,137.567,0,0,0-11.524-9.075,49.36,49.36,0,0,0-6.6-3.964c-2-1.019-4.12-1.8-6.2-2.619a47.65,47.65,0,0,0-5.663-2.039c-2.52-.651-5.153-.892-7.659-1.586a42.74,42.74,0,0,0-10.377-1.005,1.614,1.614,0,0,1-1.076-1.118c-.283-2.831-.269-5.663-.665-8.494-.453-3.327-1.218-6.611-1.855-9.91a4.64,4.64,0,0,0-.212-.722c-.439-3.709-1.968-7.079-3.143-10.576a112.969,112.969,0,0,0-7.178-15.134,30.9,30.9,0,0,0-2.237-3.426c-5.479-7.9-11.623-15.219-19.481-20.882-4.346-3.115-8.792-6.088-13.365-8.834a67.031,67.031,0,0,0-8.325-3.808c-2.577-1.09-5.153-2.194-7.815-3.044a64.956,64.956,0,0,0-6.427-1.416c-3.086-.651-6.187-1.288-9.273-1.911a9.729,9.729,0,0,0-1.812-.2c-6.187,0-12.4-.2-18.574.085a68.39,68.39,0,0,0-9.3,1.727,15.957,15.957,0,0,1-3.171.311c-.269,0-.75-.595-.793-.963-.4-3.454-.566-6.937-1.1-10.363-.411-2.647-1.26-5.224-1.911-7.829-.439-1.756-.835-3.525-1.317-5.267-.637-2.308-1.3-4.587-2.039-6.866-.807-2.52-1.628-5.054-2.577-7.532s-1.954-4.615-2.973-6.895c-.722-1.642-1.416-3.285-2.293-4.884-1.7-3.242-3.355-6.512-5.224-9.669s-3.752-6-5.8-8.877c-2.364-3.313-4.927-6.484-7.39-9.726a121.457,121.457,0,0,0-18.5-18.574,152.2,152.2,0,0,0-16.479-12.119c-3.327-2.138-6.923-3.893-10.42-5.762-2.732-1.416-5.479-2.831-8.282-4.247-2.1-.963-4.247-1.671-6.442-2.506-1.812-.694-3.624-1.416-5.451-2.067-1.133-.411-2.265-.807-3.412-1.1-1.94-.5-3.907-.906-5.847-1.416s-3.78-.963-5.663-1.416c-1.416-.326-2.831-.58-4.247-.835-3.851-.694-7.687-1.416-11.567-2.01-2-.3-4.049-.17-6.074-.269-3.738-.184-7.461-.552-11.2-.538-3.992,0-7.985.3-11.963.637-3.016.255-6.031.651-9,1.2-2.647.5-5.224,1.317-7.843,1.911-2.251.524-4.545.864-6.781,1.416-1.755.411-3.469.963-5.182,1.5s-3.823,1.175-5.663,1.9c-2.322.892-4.6,1.925-6.895,2.831s-4.247,1.727-6.342,2.662c-1.741.793-3.483,1.586-5.139,2.534-4.247,2.435-8.494,4.828-12.515,7.5A119.386,119.386,0,0,0,284.17,48.566c-1.925,1.869-4.106,3.5-5.889,5.479-4.049,4.474-8.126,8.933-11.793,13.7a146.032,146.032,0,0,0-9.061,13.577c-2.449,4.035-4.629,8.268-6.7,12.515-1.685,3.454-3.016,7.079-4.53,10.618-.51,1.189-1.614,1.076-2.6,1.005a38.761,38.761,0,0,0-4.389-.368c-4.148.227-8.282.609-12.43.934a6.444,6.444,0,0,0-.892.127c-3.454.439-6.923.75-10.349,1.331a57.012,57.012,0,0,0-5.9,1.727c-1.543.439-3.129.765-4.63,1.317-3.653,1.416-7.291,2.831-10.873,4.247a58.571,58.571,0,0,0-6.895,3.369c-3.752,2.209-7.489,4.488-11.071,6.994a97.687,97.687,0,0,0-19.919,18.8,106.709,106.709,0,0,0-7.971,10.887,134.145,134.145,0,0,0-6.187,12.048c-1.416,2.831-2.676,5.861-3.893,8.834-.58,1.416-.878,2.987-1.416,4.445a1.756,1.756,0,0,1-1.1.977c-4.247.807-8.678,1.416-12.968,2.35a98.531,98.531,0,0,0-9.429,3.016c-2.463.835-4.927,1.7-7.334,2.676a33.6,33.6,0,0,0-4.431,2.279,103.735,103.735,0,0,0-10.689,6.668,179.934,179.934,0,0,0-13.86,11.765,64.022,64.022,0,0,0-7.815,8.891,119.2,119.2,0,0,0-8.2,12.543A93.118,93.118,0,0,0,55.9,242.692a90.918,90.918,0,0,0-3.044,8.806c-.651,2.251-.991,4.6-1.416,6.909-.311,1.416-.736,2.959-.949,4.46a101.932,101.932,0,0,0-.821,20.457,93.662,93.662,0,0,0,1.529,9.91c.467,2.676.949,5.366,1.571,8a47.706,47.706,0,0,0,1.713,4.927c.878,2.449,1.741,4.9,2.732,7.305a60.942,60.942,0,0,0,2.831,6c1.147,2.18,2.421,4.247,3.667,6.442.864,1.487,1.671,2.987,2.662,4.389a97.1,97.1,0,0,0,14.993,17.116A91.1,91.1,0,0,0,98.934,359.8c3.553,1.869,7.305,3.355,10.958,5.054a53.217,53.217,0,0,0,9.91,3.412c3.355.821,6.682,1.628,10.094,2.209,3.016.524,6.017.708,9.032,1.048,10.873,1.189,21.788.283,32.675.524,7.418.17,14.837,0,22.241,0,1.529,0,2.138.4,1.982,1.982a28.312,28.312,0,0,0,0,3.794c0,.835-.269,1.26-1.147,1.189a6.575,6.575,0,0,0-.75,0c-17.782,0-35.563.212-53.331-.142-4.445-.085-9.075.071-13.492-1.529-2.322-.849-5-.637-7.433-1.26a75.656,75.656,0,0,1-10.052-3.256,155.078,155.078,0,0,1-14.766-6.838,82.351,82.351,0,0,1-12.657-8.2,146.36,146.36,0,0,1-14.228-13.237,106.834,106.834,0,0,1-8.126-10.9c-.779-1.048-1.642-2.053-2.322-3.171-1.416-2.265-2.831-4.545-3.992-6.895-1.062-2.039-1.954-4.176-2.831-6.314a76.542,76.542,0,0,1-2.831-7.447c-1.09-3.412-1.925-6.895-2.831-10.335a71.919,71.919,0,0,1-1.883-11.821,137.326,137.326,0,0,1-.34-19.141c.142-4.12.156-8.353,1.571-12.416.864-2.506.793-5.337,1.656-7.829,1.741-5.026,2.831-10.278,5.55-14.979,1.416-2.449,2.35-5.125,3.738-7.574,1.189-2.1,2.7-4.007,4.063-6.017.736-1.09,1.416-2.223,2.194-3.27,1.288-1.727,2.6-3.454,4.035-5.068,2.987-3.384,5.932-6.781,9.117-9.981,2.025-2.024,4.53-3.568,6.626-5.536a61.342,61.342,0,0,1,10.816-7.475c2.831-1.756,5.819-3.454,8.792-5.068a31.96,31.96,0,0,1,3.95-1.416,137.44,137.44,0,0,1,19.566-6.272c1.685-.453,3.469-.524,5.182-.835a1.543,1.543,0,0,0,1.048-.722c.991-2.364,1.869-4.771,2.831-7.079.694-1.671,1.416-3.313,2.251-4.941,1.246-2.534,2.449-5.1,3.837-7.546a66.535,66.535,0,0,1,4.247-6.47,130.068,130.068,0,0,1,8.962-11.453c3.638-4.077,7.56-7.914,11.581-11.609a61.8,61.8,0,0,1,8-6.13,126.95,126.95,0,0,1,13.8-8.494,118.764,118.764,0,0,1,11.736-5.083c4.955-1.826,10-3.2,15.049-4.516a83.672,83.672,0,0,1,11.17-1.727c5.224-.623,10.392-.623,15.573-.765a1.416,1.416,0,0,0,.991-.68c1.232-2.831,2.251-5.663,3.6-8.494,1.515-3.072,3.256-6.031,4.955-9.018q2.124-3.61,4.247-7.149c.665-1.076,1.416-2.109,2.152-3.115,2-2.662,4.007-5.323,6.045-7.942,1.487-1.925,2.987-3.851,4.573-5.663a103.558,103.558,0,0,1,12.374-12.671c3.3-2.676,6.314-5.663,9.7-8.282,3.893-2.973,8.013-5.663,12.1-8.353,3.2-2.1,6.484-4.077,9.811-5.989,1.826-1.048,3.808-1.826,5.734-2.718,2.69-1.232,5.394-2.478,8.1-3.681,1.005-.453,2.039-.835,3.072-1.232,2.393-.892,4.771-1.869,7.206-2.662,1.77-.566,3.624-.849,5.436-1.331,2.732-.722,5.408-1.642,8.169-2.209,3.454-.722,6.965-1.161,10.448-1.727l2.209-.4a39.215,39.215,0,0,1,5-.779c6.88-.269,13.761-.637,20.641-.566A143.048,143.048,0,0,1,401.1,4.764c3.7.382,7.39.892,11.057,1.543,2.718.5,5.394,1.331,8.07,2.039,1.416.354,2.747.708,4.092,1.147,3.5,1.133,6.994,2.251,10.448,3.511s7.192,2.6,10.66,4.247c3.242,1.487,6.314,3.341,9.457,5.054,1.416.764,2.831,1.416,4.247,2.322,2.831,1.77,5.663,3.454,8.353,5.451,5.578,4.247,11.2,8.339,16.437,12.926a178.385,178.385,0,0,1,13.11,13.067,89.733,89.733,0,0,1,6.158,8.013c2.294,3.072,4.672,6.088,6.753,9.3,1.925,2.987,3.483,6.2,5.21,9.33.963,1.713,2.024,3.384,2.831,5.153,1.543,3.27,3.086,6.555,4.4,9.91,1.755,4.445,3.511,8.9,4.9,13.478,1.274,4.247,2.053,8.494,3.044,12.742.2.835.453,1.642.637,2.478.411,2.025.793,4.049,1.218,6.059A8.4,8.4,0,0,0,532.49,133.4Z" transform="translate(-42.67 -3.59)" fill="#009cdc"/>
    <path class="rect" id="Path_3" data-name="Path 3" d="M312.769,115.688h-107.6c-2.322,0-2.322,0-2.322-2.308a15.814,15.814,0,0,0,0-2.591,10.222,10.222,0,0,1,2.6-8.4c2.506-3.086,5.366-5.833,9.443-6.8a9.061,9.061,0,0,1,1.954-.2H408.968a10.462,10.462,0,0,1,7.645,3.129,40.29,40.29,0,0,1,4.46,5.139,9.91,9.91,0,0,1,1.416,4.346c.255,2.109,0,4.247.085,6.4,0,.92-.354,1.3-1.26,1.246H419.8ZM223.577,99.195a5.055,5.055,0,0,0,.142,10.108,5.125,5.125,0,0,0,5.04-5.054,5.068,5.068,0,0,0-5.224-5.054Zm15.913,5.054a2.115,2.115,0,1,1-.042,0Zm10.675.1a4.87,4.87,0,0,0-4.955-5.167,5.012,5.012,0,0,0-5.054,4.969,4.927,4.927,0,0,0,5.012,5.153,4.87,4.87,0,0,0,4.955-4.955Z" transform="translate(23.897 34.577)" fill="#009cdc"/>
    <path class="rect" id="Path_4" data-name="Path 4" d="M236.74,45.251c3.525-2.7,6.937-5.564,10.59-8.07A87.139,87.139,0,0,1,284.281,22.8a149.886,149.886,0,0,1,20.273-1.727,167.839,167.839,0,0,1,19.537,1.416A151.3,151.3,0,0,1,354.26,29.3c21.59,6.937,37.29,21.052,48.489,40.433a139.746,139.746,0,0,1,15.743,42.585,106.182,106.182,0,0,1,1.671,11.326c-1.09-2.322-2.152-4.658-3.27-6.965C407.86,97.8,396.506,80.6,381.174,66.275a117.62,117.62,0,0,0-55.766-29.6,128.039,128.039,0,0,0-23.473-2.831,158.562,158.562,0,0,0-64.416,11.694l-.51.212a3.9,3.9,0,0,0-.269-.5Z" transform="translate(38.029 3.676)" fill="#009cdc"/>
    <path id="Path_5" data-name="Path 5" d="M163.829,262c0,3.369.34,2.831-2.831,2.831-2.01,0-2.01,0-2.025-1.94a4.372,4.372,0,0,1,0-.609c.085-1.034-.127-2.831.326-2.959a9.541,9.541,0,0,1,3.837-.269c.255,0,.637.566.708.92A11.328,11.328,0,0,1,163.829,262Z" transform="translate(5.694 102.58)" fill="#009cdc"/>
    <path id="Path_6" data-name="Path 6" d="M190.6,262.047c0,3.285.354,2.831-2.831,2.831-2.152,0-2.152,0-2.166-2.1v-.3c0-3.511,0-3.483,3.553-3.454,1.019,0,1.529.283,1.416,1.416Q190.544,261.247,190.6,262.047Z" transform="translate(16.769 102.603)" fill="#009cdc"/>
    <path id="Path_7" data-name="Path 7" d="M205.441,261.92c0-3.341-.425-2.831,2.831-2.831,2.081,0,2.081,0,2.081,2.025v.311c0,3.554,0,3.511-3.5,3.511-1.1,0-1.6-.3-1.416-1.416A13.543,13.543,0,0,0,205.441,261.92Z" transform="translate(25.002 102.617)" fill="#009cdc"/>
    <path id="Path_8" data-name="Path 8" d="M217.227,262.006c0,3.355.34,2.831-2.9,2.831-2,0-2,0-2.01-1.954v-1.048c0-3.228-.4-2.831,2.831-2.831,2.1,0,2.1,0,2.1,2.039Z" transform="translate(27.868 102.588)" fill="#009cdc"/>
    <path id="Path_9" data-name="Path 9" d="M222.213,261.936c0,3.412.467,2.9-3,2.931-1.982,0-1.982,0-1.982-1.982v-.453c0-3.44,0-3.384,3.454-3.412,1.2,0,1.685.354,1.529,1.557a10.892,10.892,0,0,0,0,1.359Z" transform="translate(29.918 102.6)" fill="#009cdc"/>
    <path id="Path_10" data-name="Path 10" d="M237.05,262.006c0,3.313.439,2.831-2.831,2.831-2.081,0-2.081,0-2.081-2.039v-.453c0-3.95-.552-3.214,3.369-3.355,1.246,0,1.784.34,1.628,1.614A8.706,8.706,0,0,0,237.05,262.006Z" transform="translate(36.105 102.588)" fill="#009cdc"/>
    <path id="Path_11" data-name="Path 11" d="M270.455,261.9c0,3.469.439,2.945-2.987,2.973-1.968,0-1.968,0-1.968-2v-.467c0-3.369,0-3.3,3.214-3.4,1.416,0,1.94.453,1.755,1.812a9.106,9.106,0,0,0-.014,1.076Z" transform="translate(49.986 102.596)" fill="#009cdc"/>
    <path id="Path_12" data-name="Path 12" d="M248.678,267.335c0,3.4.4,2.831-2.831,2.916-2.067,0-2.067,0-2.067-2.067v-.453c0-3.327,0-3.256,3.27-3.341,1.345,0,1.883.4,1.7,1.727A8.7,8.7,0,0,0,248.678,267.335Z" transform="translate(40.956 104.833)" fill="#009cdc"/>
    <path id="Path_13" data-name="Path 13" d="M290.218,262.013c0,3.384.4,2.831-2.831,2.831-2.067,0-2.067,0-2.067-2.081v-.142c0-3.922,0-3.95,3.893-3.554.382,0,.878.623,1.019,1.062a5.931,5.931,0,0,1-.014,1.883Z" transform="translate(58.226 102.552)" fill="#009cdc"/>
    <path id="Path_14" data-name="Path 14" d="M248.7,251.78c0,3.171.34,2.732-2.732,2.761-2.223,0-2.223,0-2.223-2.364,0-3.511,0-3.454,3.412-3.5,1.218,0,1.7.368,1.557,1.571a11,11,0,0,0-.014,1.529Z" transform="translate(40.94 98.302)" fill="#009cdc"/>
    <path id="Path_15" data-name="Path 15" d="M248.706,251.6c0-3.369-.411-2.831,2.831-2.831,2.053,0,2.053,0,2.053,2.081v.311c0,3.766,0,3.794-3.893,3.384-.382,0-.878-.623-1.019-1.062a5.947,5.947,0,0,1,.028-1.883Z" transform="translate(42.967 98.326)" fill="#009cdc"/>
    <path id="Path_16" data-name="Path 16" d="M258.605,251.71c0,3.285.354,2.831-2.831,2.831-2.124,0-2.124,0-2.124-2.152v-.311c0-3.4,0-3.341,3.369-3.4,1.288,0,1.755.425,1.6,1.671a10.882,10.882,0,0,0-.014,1.359Z" transform="translate(45.06 98.302)" fill="#009cdc"/>
    <path id="Path_17" data-name="Path 17" d="M292.184,261.92c0-3.341-.425-2.831,2.916-2.831,1.982,0,1.982,0,2,2.01v.623c0,3.752.481,3.072-3.242,3.214-1.416,0-1.855-.425-1.685-1.741A8.7,8.7,0,0,0,292.184,261.92Z" transform="translate(61.06 102.617)" fill="#009cdc"/>
    <path id="Path_18" data-name="Path 18" d="M376.1,262.036c0,3.228.411,2.831-2.831,2.831-2.152,0-2.152,0-2.152-2.152v-.3c.071-3.978-.566-3.256,3.369-3.4,1.274,0,1.77.382,1.614,1.642a11.085,11.085,0,0,0,0,1.373Z" transform="translate(93.896 102.6)" fill="#009cdc"/>
    <path id="Path_19" data-name="Path 19" d="M397.621,262.06c0,3.313.425,2.831-2.916,2.831-2.024,0-2.024,0-2.024-1.954v-.453c0-3.667.382-4.007,4.049-3.369a1.416,1.416,0,0,1,.849.934A9.091,9.091,0,0,1,397.621,262.06Z" transform="translate(102.86 102.533)" fill="#009cdc"/>
    <path id="Path_20" data-name="Path 20" d="M238.8,262.152c0-3.355-.439-2.831,2.9-2.9,2.053,0,2.053,0,2.053,2.081v.311c0,3.766,0,3.794-3.907,3.4-.382,0-.878-.637-1.019-1.062A6.527,6.527,0,0,1,238.8,262.152Z" transform="translate(38.867 102.696)" fill="#009cdc"/>
    <path id="Path_21" data-name="Path 21" d="M323.563,252.1c0,2.931.439,2.463-2.9,2.492-2.01,0-2.01,0-2.01-1.954v-.453c0-3.667.354-3.992,4.035-3.384a1.416,1.416,0,0,1,.835.934A12.335,12.335,0,0,1,323.563,252.1Z" transform="translate(72.083 98.251)" fill="#009cdc"/>
    <path id="Path_22" data-name="Path 22" d="M328.529,251.716c0,3.214.411,2.831-2.831,2.831-2.138,0-2.138,0-2.138-2.166v-.3c.071-3.964-.552-3.242,3.4-3.384,1.288,0,1.755.411,1.6,1.656a11.086,11.086,0,0,0-.028,1.359Z" transform="translate(74.124 98.31)" fill="#009cdc"/>
    <path id="Path_23" data-name="Path 23" d="M333.438,251.625c0,3.341.425,2.831-2.831,2.916-2.053,0-2.053,0-2.067-2.081v-.3c0-3.469,0-3.4,3.285-3.483,1.345,0,1.869.411,1.685,1.727a8.731,8.731,0,0,0-.071,1.218Z" transform="translate(76.194 98.302)" fill="#009cdc"/>
    <path id="Path_24" data-name="Path 24" d="M338.455,251.667c0,3.327.425,2.831-2.916,2.831-2.025,0-2.025,0-2.039-1.954v-.58c0-3.285,0-3.242,3.313-3.285,1.232,0,1.826.3,1.656,1.6a11.113,11.113,0,0,0-.014,1.387Z" transform="translate(78.256 98.302)" fill="#009cdc"/>
    <path id="Path_25" data-name="Path 25" d="M338.46,251.526c0-3.214-.4-2.831,2.831-2.831,2.109,0,2.109,0,2.109,2.024v.311c0,3.568,0,3.539-3.539,3.511-1.034,0-1.543-.283-1.416-1.416Q338.492,252.326,338.46,251.526Z" transform="translate(80.304 98.302)" fill="#009cdc"/>
    <path id="Path_26" data-name="Path 26" d="M323.6,262.146c0,3.412.453,2.831-3,2.973-1.529.071-2.194-.368-1.94-1.925a2.916,2.916,0,0,0,0-.609c0-3.369,0-3.327,3.369-3.355,1.189,0,1.713.326,1.557,1.557a10.881,10.881,0,0,0,.014,1.359Z" transform="translate(72.063 102.688)" fill="#009cdc"/>
    <path id="Path_27" data-name="Path 27" d="M212.339,267.079c0-3.327-.439-2.831,2.831-2.831,2.01,0,2.01,0,2.01,1.968v.453c0,3.653-.4,4.007-4.035,3.37a1.416,1.416,0,0,1-.835-.949,9.911,9.911,0,0,1,.028-2.01Z" transform="translate(27.858 104.763)" fill="#009cdc"/>
    <path id="Path_28" data-name="Path 28" d="M248.687,267.365c0-3.44-.439-2.831,3.03-2.973,1.543-.071,2.194.382,1.94,1.94a2.916,2.916,0,0,0,0,.609c0,3.426-.736,4.021-4.162,3.284a1.3,1.3,0,0,1-.75-.892,10.142,10.142,0,0,1-.057-1.968Z" transform="translate(42.986 104.831)" fill="#009cdc"/>
    <path id="Path_29" data-name="Path 29" d="M227.164,267.19c0,3.341.326,2.831-2.931,2.831-2.1,0-2.1,0-2.109-2.053v-.453c0-3.95-.439-3.214,3.412-3.355,1.26,0,1.784.368,1.642,1.628A11.112,11.112,0,0,0,227.164,267.19Z" transform="translate(31.947 104.737)" fill="#009cdc"/>
    <path id="Path_30" data-name="Path 30" d="M237.043,267.17c0,3.327.439,2.831-2.831,2.831-2.081,0-2.081,0-2.081-2.039v-.453c0-3.369,0-3.313,3.369-3.369,1.232,0,1.8.326,1.628,1.614A8.7,8.7,0,0,0,237.043,267.17Z" transform="translate(36.113 104.729)" fill="#009cdc"/>
    <path id="Path_31" data-name="Path 31" d="M163.86,267.278c0,3.469.382,2.831-2.959,3.016-1.5.071-2.237-.311-1.954-1.9a4.367,4.367,0,0,0,0-.609c0-3.384,0-3.3,3.185-3.4,1.416,0,1.911.481,1.741,1.826a8.855,8.855,0,0,0-.014,1.062Z" transform="translate(5.663 104.833)" fill="#009cdc"/>
    <path id="Path_32" data-name="Path 32" d="M185.629,267.258c0-3.3-.411-2.831,2.931-2.831,2.039,0,2.039,0,2.039,2.081v.453c0,3.327,0,3.27-3.384,3.327-1.3,0-1.741-.439-1.586-1.656A11.115,11.115,0,0,0,185.629,267.258Z" transform="translate(16.768 104.839)" fill="#009cdc"/>
    <path id="Path_33" data-name="Path 33" d="M205.441,267.211c0-3.2-.4-2.747,2.831-2.831,2.124,0,2.124,0,2.124,2.138v.142c0,3.6,0,3.539-3.44,3.582-1.218,0-1.671-.382-1.529-1.571A13.491,13.491,0,0,0,205.441,267.211Z" transform="translate(25.001 104.829)" fill="#009cdc"/>
    <path id="Path_34" data-name="Path 34" d="M158.946,256.661c0-3.214-.4-2.747,2.831-2.831,2.053,0,2.053,0,2.053,2.081a2.079,2.079,0,0,1,0,.3c-.071,4.063.609,3.341-3.4,3.483-1.246,0-1.656-.411-1.515-1.571a13.513,13.513,0,0,0,.028-1.458Z" transform="translate(5.665 100.443)" fill="#009cdc"/>
    <path id="Path_35" data-name="Path 35" d="M190.589,256.795c0,3.426.411,2.831-3.016,2.916-1.94,0-1.94,0-1.954-2.01v-.609c0-3.242,0-3.171,3.313-3.242,1.416,0,1.84.439,1.671,1.727A8.707,8.707,0,0,0,190.589,256.795Z" transform="translate(16.777 100.451)" fill="#009cdc"/>
    <path id="Path_36" data-name="Path 36" d="M210.385,256.795c0,3.426.425,2.831-3,2.916-1.954,0-1.954,0-1.954-2.01v-.609c0-3.242,0-3.171,3.3-3.242,1.416,0,1.84.439,1.671,1.727A8.707,8.707,0,0,0,210.385,256.795Z" transform="translate(25.013 100.451)" fill="#009cdc"/>
    <path id="Path_37" data-name="Path 37" d="M212.315,256.7c0-3.228-.4-2.831,2.831-2.831,2.1,0,2.1,0,2.1,2.025v.453c0,3.936.566,3.256-3.355,3.369-1.161,0-1.727-.269-1.557-1.515A13.526,13.526,0,0,0,212.315,256.7Z" transform="translate(27.868 100.451)" fill="#009cdc"/>
    <path id="Path_38" data-name="Path 38" d="M237.063,256.752c0,3.426.467,2.916-2.973,2.959-2.01,0-2.01,0-2.01-1.968v-.453c0-3.454,0-3.412,3.44-3.44,1.175,0,1.713.311,1.557,1.543A8.7,8.7,0,0,0,237.063,256.752Z" transform="translate(36.092 100.451)" fill="#009cdc"/>
    <path id="Path_39" data-name="Path 39" d="M238.8,256.739c0-3.327-.425-2.831,2.945-2.831,2.01,0,2.01,0,2.01,1.968v.609c0,3.284,0,3.228-3.327,3.284-1.246,0-1.812-.326-1.642-1.628A10.854,10.854,0,0,0,238.8,256.739Z" transform="translate(38.869 100.464)" fill="#009cdc"/>
    <path id="Path_40" data-name="Path 40" d="M258.6,256.739c0-3.327-.425-2.831,2.945-2.831,2.01,0,2.01,0,2.024,1.968v.609c0,3.284,0,3.228-3.341,3.284-1.246,0-1.812-.326-1.628-1.628A10.881,10.881,0,0,0,258.6,256.739Z" transform="translate(47.103 100.464)" fill="#009cdc"/>
    <path id="Path_41" data-name="Path 41" d="M265.493,256.729c0-3.313-.425-2.831,2.945-2.831,2.01,0,2.01,0,2.01,1.968v.609c0,3.285,0,3.228-3.327,3.285-1.246,0-1.812-.34-1.642-1.628A8.87,8.87,0,0,0,265.493,256.729Z" transform="translate(49.965 100.461)" fill="#009cdc"/>
    <path id="Path_42" data-name="Path 42" d="M290.223,256.891c0,3.228.368,2.831-2.831,2.831-2.081,0-2.081,0-2.081-2.053v-.311c0-3.553,0-3.525,3.554-3.5,1.048,0,1.515.326,1.416,1.416Q290.211,256.082,290.223,256.891Z" transform="translate(58.222 100.454)" fill="#009cdc"/>
    <path id="Path_43" data-name="Path 43" d="M297.083,256.89c0,3.313.283,2.831-2.831,2.831-2.081,0-2.081,0-2.081-2.053v-.609c0-3.2,0-3.143,3.256-3.2,1.246,0,1.812.34,1.656,1.628a11.117,11.117,0,0,0,0,1.4Z" transform="translate(61.074 100.455)" fill="#009cdc"/>
    <path id="Path_44" data-name="Path 44" d="M323.6,256.766c0,3.4.453,2.831-3,2.973-1.529.071-2.194-.368-1.94-1.925a2.916,2.916,0,0,0,0-.609c0-3.369,0-3.327,3.369-3.355,1.189,0,1.713.326,1.557,1.543a8.9,8.9,0,0,0,.014,1.373Z" transform="translate(72.063 100.451)" fill="#009cdc"/>
    <path id="Path_45" data-name="Path 45" d="M376.1,256.886c0,3.228.4,2.831-2.831,2.831-2.152,0-2.152,0-2.152-2.152v-.311c.071-3.978-.566-3.256,3.355-3.384,1.274,0,1.784.368,1.628,1.628A11.124,11.124,0,0,0,376.1,256.886Z" transform="translate(93.896 100.459)" fill="#009cdc"/>
    <path id="Path_46" data-name="Path 46" d="M397.64,257.3c0,2.945.453,2.35-3.03,2.506-1.557.071-2.166-.425-1.925-1.954a2.827,2.827,0,0,0,0-.609c0-3.369.821-4.021,4.162-3.256a1.274,1.274,0,0,1,.736.906A13.923,13.923,0,0,1,397.64,257.3Z" transform="translate(102.841 100.387)" fill="#009cdc"/>
    <path id="Path_47" data-name="Path 47" d="M253.651,266.93c0-2.959-.425-2.478,2.916-2.506,2.039,0,2.039,0,2.053,2.1v.311c0,3.709-.3,3.978-4.063,3.384a1.416,1.416,0,0,1-.864-.934,12.142,12.142,0,0,1-.042-2.35Z" transform="translate(45.044 104.842)" fill="#009cdc"/>
    <path id="Path_48" data-name="Path 48" d="M265.493,267.289c0-3.327-.439-2.831,2.931-2.831,2.025,0,2.025,0,2.025,1.954v.609c0,3.285,0,3.242-3.313,3.285-1.232,0-1.826-.3-1.656-1.6A8.9,8.9,0,0,0,265.493,267.289Z" transform="translate(49.965 104.85)" fill="#009cdc"/>
    <path id="Path_49" data-name="Path 49" d="M290.249,267.331c0,3.4.382,2.831-2.9,2.916-2.067,0-2.067,0-2.067-2.053v-.467c0-3.327,0-3.256,3.27-3.327,1.416,0,1.883.382,1.7,1.713A8.73,8.73,0,0,0,290.249,267.331Z" transform="translate(58.209 104.837)" fill="#009cdc"/>
    <path id="Path_50" data-name="Path 50" d="M297.07,267.436c0,3.27.283,2.831-2.831,2.831-2.039,0-2.039,0-2.039-2.1v-.453c0-3.313,0-3.242,3.3-3.3,1.317,0,1.755.439,1.614,1.671A7.01,7.01,0,0,0,297.07,267.436Z" transform="translate(61.086 104.845)" fill="#009cdc"/>
    <path id="Path_51" data-name="Path 51" d="M318.663,267.377c0-3.412-.453-2.831,2.987-2.987,1.529,0,2.208.368,1.94,1.94a2.831,2.831,0,0,0,0,.595c0,3.369,0,3.327-3.384,3.355-1.189,0-1.727-.311-1.557-1.543a10.859,10.859,0,0,0,.014-1.359Z" transform="translate(72.069 104.833)" fill="#009cdc"/>
    <path id="Path_52" data-name="Path 52" d="M328.546,267.42c0,3.228.411,2.831-2.831,2.831-2.194,0-2.194,0-2.194-2.378,0-3.454,0-3.384,3.256-3.483,1.416,0,1.925.467,1.741,1.826a8.49,8.49,0,0,0,.028,1.2Z" transform="translate(74.107 104.833)" fill="#009cdc"/>
    <path id="Path_53" data-name="Path 53" d="M333.434,267.426c0,3.341.425,2.831-2.831,2.831-2.053,0-2.053,0-2.053-2.081v-.311c0-3.709.3-3.978,4.049-3.384a1.416,1.416,0,0,1,.864.92A9.084,9.084,0,0,1,333.434,267.426Z" transform="translate(76.198 104.77)" fill="#009cdc"/>
    <path id="Path_54" data-name="Path 54" d="M333.5,267.322c0-3.369-.411-2.831,2.9-2.9,2.039,0,2.039,0,2.039,2.1v.3c0,3.709-.3,3.978-4.035,3.4a1.416,1.416,0,0,1-.864-.92,9.128,9.128,0,0,1-.043-1.968Z" transform="translate(78.242 104.845)" fill="#009cdc"/>
    <path id="Path_55" data-name="Path 55" d="M338.466,267.322c0-3.341-.425-2.831,2.9-2.9,2.053,0,2.053,0,2.053,2.081v.311c0,3.454,0,3.384-3.285,3.469-1.416,0-1.869-.425-1.685-1.741a8.708,8.708,0,0,0,.014-1.218Z" transform="translate(80.299 104.845)" fill="#009cdc"/>
    <path id="Path_56" data-name="Path 56" d="M371.141,267.291c0-3.369-.34-2.831,2.959-2.831,2.01,0,2.01,0,2.01,1.968v.609c0,3.27,0,3.228-3.327,3.27-1.232,0-1.812-.311-1.656-1.614a10.882,10.882,0,0,0,.014-1.4Z" transform="translate(93.889 104.849)" fill="#009cdc"/>
    <path id="Path_57" data-name="Path 57" d="M397.622,267.4c0,3.313.425,2.831-2.945,2.831-2,0-2,0-2-1.968v-.609c.071-3.808-.581-3.143,3.313-3.27,1.246,0,1.812.34,1.642,1.628a10.861,10.861,0,0,0-.014,1.387Z" transform="translate(102.859 104.829)" fill="#009cdc"/>
    <path id="Path_58" data-name="Path 58" d="M163.846,272.533c0,3.355.354,2.831-2.9,2.831-2.01,0-2.01,0-2.01-1.94v-.411c.113-4.049-.835-3.355,3.723-3.454.963,0,1.246.425,1.2,1.288C163.832,271.415,163.846,271.967,163.846,272.533Z" transform="translate(5.677 106.982)" fill="#009cdc"/>
    <path id="Path_59" data-name="Path 59" d="M185.631,272.381c0-3.214-.4-2.761,2.831-2.831,2.124,0,2.124,0,2.124,2.138v.156c0,3.6,0,3.539-3.44,3.568-1.218,0-1.671-.368-1.529-1.557A13.526,13.526,0,0,0,185.631,272.381Z" transform="translate(16.765 106.978)" fill="#009cdc"/>
    <path id="Path_60" data-name="Path 60" d="M205.448,272.328c0-3.129-.368-2.718,2.718-2.747,2.237,0,2.237,0,2.237,2.18v.453c0,3.214,0,3.157-3.185,3.228-1.416,0-2.01-.3-1.784-1.755a8.687,8.687,0,0,0,.014-1.359Z" transform="translate(24.995 106.989)" fill="#009cdc"/>
    <path id="Path_61" data-name="Path 61" d="M212.316,272.549c0-3.44-.453-2.831,2.973-2.987,1.529-.071,2.209.368,1.954,1.925a4.377,4.377,0,0,0,0,.609c0,3.922.566,3.228-3.369,3.355-1.189,0-1.7-.326-1.543-1.543A10.888,10.888,0,0,0,212.316,272.549Z" transform="translate(27.867 106.98)" fill="#009cdc"/>
    <path id="Path_62" data-name="Path 62" d="M232.113,272.7c0,3.058.368,2.7-2.6,2.718-2.378,0-2.378,0-2.378-2.35,0-3.511,0-3.454,3.369-3.511,1.26,0,1.784.368,1.628,1.628a10.8,10.8,0,0,0-.014,1.515Z" transform="translate(34.034 106.982)" fill="#009cdc"/>
    <path id="Path_63" data-name="Path 63" d="M237.063,272.7c0,3.058.354,2.7-2.6,2.718-2.378,0-2.378,0-2.378-2.506,0-3.355,0-3.3,3.369-3.355,1.26,0,1.784.354,1.628,1.628A10.8,10.8,0,0,0,237.063,272.7Z" transform="translate(36.092 106.982)" fill="#009cdc"/>
    <path id="Path_64" data-name="Path 64" d="M258.6,272.549c0-3.44-.453-2.831,3.016-2.987,1.515-.071,2.223.34,1.954,1.925a2.416,2.416,0,0,0,0,.453c0,3.525,0,3.483-3.412,3.511-1.161,0-1.727-.3-1.557-1.543a10.883,10.883,0,0,0,0-1.359Z" transform="translate(47.105 106.98)" fill="#009cdc"/>
    <path id="Path_65" data-name="Path 65" d="M265.489,272.549c0-3.426-.467-2.831,3.016-2.987,1.515-.071,2.223.34,1.954,1.925a2.39,2.39,0,0,0,0,.453c0,3.525,0,3.483-3.4,3.511-1.175,0-1.741-.283-1.571-1.529a8.893,8.893,0,0,0,0-1.373Z" transform="translate(49.969 106.98)" fill="#009cdc"/>
    <path id="Path_66" data-name="Path 66" d="M290.249,272.56c0,3.355.382,2.831-2.945,2.831-2.025,0-2.025,0-2.025-1.968v-.609c0-3.285,0-3.228,3.327-3.285,1.232,0,1.812.326,1.642,1.614A11.113,11.113,0,0,0,290.249,272.56Z" transform="translate(58.209 106.97)" fill="#009cdc"/>
    <path id="Path_67" data-name="Path 67" d="M292.178,272.427c0-3.256-.4-2.831,2.831-2.831,2.081,0,2.081,0,2.1,2.067v.3c-.071,4.049.552,3.341-3.3,3.483-1.274,0-1.784-.382-1.628-1.642a11.091,11.091,0,0,0,0-1.373Z" transform="translate(61.066 106.99)" fill="#009cdc"/>
    <path id="Path_68" data-name="Path 68" d="M323.577,272.6c0,3.228.4,2.831-2.831,2.831-2.1,0-2.1,0-2.1-2.024V273.1c0-3.568,0-3.525,3.511-3.525,1.175,0,1.529.453,1.416,1.529C323.534,271.595,323.577,272.09,323.577,272.6Z" transform="translate(72.083 106.987)" fill="#009cdc"/>
    <path id="Path_69" data-name="Path 69" d="M371.15,272.635c0-3.568-.425-2.9,3.072-3.072,1.6-.085,2.138.481,1.9,1.982a2.416,2.416,0,0,0,0,.453c0,3.7-.326,3.992-4.049,3.384a1.415,1.415,0,0,1-.878-.92A7.86,7.86,0,0,1,371.15,272.635Z" transform="translate(93.895 106.98)" fill="#009cdc"/>
    <path id="Path_70" data-name="Path 70" d="M397.641,272.458c0,3.426.453,2.831-3,2.987-1.5,0-2.223-.326-1.954-1.911a2.459,2.459,0,0,0,0-.453c0-3.525,0-3.483,3.384-3.511,1.161,0,1.741.283,1.571,1.529A10.859,10.859,0,0,0,397.641,272.458Z" transform="translate(102.839 106.987)" fill="#009cdc"/>
    <path id="Path_71" data-name="Path 71" d="M158.945,277.652c0-3.369-.439-2.831,2.831-2.9,2.039,0,2.039,0,2.039,2.081a2.276,2.276,0,0,1,0,.311c-.071,4.049.68,3.341-3.568,3.454-1.1,0-1.416-.411-1.345-1.416A5.538,5.538,0,0,0,158.945,277.652Z" transform="translate(5.666 109.14)" fill="#009cdc"/>
    <path id="Path_72" data-name="Path 72" d="M185.628,277.47c0-3.072-.354-2.7,2.6-2.718,2.364,0,2.364,0,2.364,2.35,0,3.511,0,3.454-3.369,3.511-1.26,0-1.755-.382-1.6-1.628A13.53,13.53,0,0,0,185.628,277.47Z" transform="translate(16.769 109.138)" fill="#009cdc"/>
    <path id="Path_73" data-name="Path 73" d="M210.385,277.79c0,3.242.368,2.831-2.831,2.831-2.124,0-2.124,0-2.124-2.138v-.156c0-3.6,0-3.539,3.44-3.568,1.218,0,1.656.382,1.529,1.557A13.487,13.487,0,0,0,210.385,277.79Z" transform="translate(25.013 109.144)" fill="#009cdc"/>
    <path id="Path_74" data-name="Path 74" d="M212.315,277.576c0-3.228-.4-2.831,2.831-2.831,2.109,0,2.109,0,2.109,2.166v.311c0,3.936.566,3.256-3.355,3.369-1.147,0-1.727-.255-1.557-1.515a13.521,13.521,0,0,0-.028-1.5Z" transform="translate(27.868 109.131)" fill="#009cdc"/>
    <path id="Path_75" data-name="Path 75" d="M237.063,277.75c0,3.284.425,2.831-2.931,2.831-2.053,0-2.053,0-2.053-2.081v-.453c0-3.341,0-3.284,3.4-3.327,1.288,0,1.741.411,1.6,1.642a11.084,11.084,0,0,0-.014,1.387Z" transform="translate(36.092 109.128)" fill="#009cdc"/>
    <path id="Path_76" data-name="Path 76" d="M265.511,277.666c0-3.37-.439-2.831,2.831-2.916,2.067,0,2.067,0,2.081,2.067v.311c0,3.469,0,3.412-3.285,3.483-1.345,0-1.883-.382-1.7-1.727A8.706,8.706,0,0,0,265.511,277.666Z" transform="translate(49.947 109.14)" fill="#009cdc"/>
    <path id="Path_77" data-name="Path 77" d="M285.313,277.26c0-2.959-.439-2.478,2.831-2.506,2.039,0,2.039,0,2.053,2.1v.311c0,3.709-.3,3.978-4.063,3.384a1.416,1.416,0,0,1-.864-.92,12.542,12.542,0,0,1,.042-2.364Z" transform="translate(58.19 109.136)" fill="#009cdc"/>
    <path id="Path_78" data-name="Path 78" d="M297.085,277.656c0,3.4.326,2.831-2.916,2.931-2,0-2,0-2-2v-.3c.1-4.176-.736-3.44,3.5-3.554,1.062,0,1.515.326,1.416,1.416C297.042,276.637,297.085,277.147,297.085,277.656Z" transform="translate(61.072 109.136)" fill="#009cdc"/>
    <path id="Path_79" data-name="Path 79" d="M376.1,277.816c0,3.143.382,2.747-2.732,2.761-2.237,0-2.237,0-2.237-2.364,0-3.5,0-3.454,3.44-3.483,1.2,0,1.7.354,1.543,1.557A13.769,13.769,0,0,0,376.1,277.816Z" transform="translate(93.901 109.132)" fill="#009cdc"/>
    <path id="Path_80" data-name="Path 80" d="M392.686,277.691c0-3.412-.425-2.831,3.016-2.959,1.543-.071,2.194.382,1.94,1.94v.906c-.113.963,0,2.633-.425,2.761a10.731,10.731,0,0,1-3.879.184c-.227,0-.552-.538-.609-.849a13.217,13.217,0,0,1-.042-1.982Z" transform="translate(102.854 109.13)" fill="#009cdc"/>
    <path id="Path_81" data-name="Path 81" d="M238.811,277.84c0-3.355-.439-2.831,2.831-2.831,2.1,0,2.1,0,2.109,2.166v.3c0,3.384,0,3.341-3.327,3.384-1.218,0-1.826-.269-1.656-1.586A8.7,8.7,0,0,0,238.811,277.84Z" transform="translate(38.861 109.235)" fill="#009cdc"/>
    <path id="Path_82" data-name="Path 82" d="M258.595,277.836c0-3.242-.4-2.831,2.831-2.831,2.138,0,2.138,0,2.138,2.166v.142c0,3.582,0,3.539-3.539,3.539-1.161,0-1.557-.411-1.416-1.5C258.637,278.8,258.595,278.289,258.595,277.836Z" transform="translate(47.109 109.239)" fill="#009cdc"/>
    <path id="Path_83" data-name="Path 83" d="M318.659,277.871c0-3.4-.453-2.831,3.016-2.959,1.557-.071,2.166.425,1.911,1.954a4.386,4.386,0,0,0,0,.609c0,3.369-.821,4.021-4.162,3.256a1.316,1.316,0,0,1-.736-.892A11.332,11.332,0,0,1,318.659,277.871Z" transform="translate(72.074 109.205)" fill="#009cdc"/>
    <path id="Path_84" data-name="Path 84" d="M402.6,251.5c0,3.115.354,2.7-2.831,2.718-2.166,0-2.18,0-2.166-2.251,0-3.5-.453-3.256,2.237-3.256C402.964,248.714,402.568,248.346,402.6,251.5Z" transform="translate(104.893 98.31)" fill="#009cdc"/>
    <path id="Path_85" data-name="Path 85" d="M407.54,251.587c0,2.959.3,2.633-2.548,2.633s-2.407.241-2.393-2.492c0-3.44-.439-3,2.831-3.016C407.937,248.7,407.512,248.572,407.54,251.587Z" transform="translate(106.97 98.311)" fill="#009cdc"/>
    <path id="Path_86" data-name="Path 86" d="M217.223,251.374c0,3.341.326,2.831-2.916,2.831-1.982,0-1.982,0-2-1.968V251.02c0-2.35,0-2.35,2.378-2.35C217.435,248.727,217.223,248.373,217.223,251.374Z" transform="translate(27.873 98.298)" fill="#009cdc"/>
    <path id="Path_87" data-name="Path 87" d="M168.852,251.531c0,3.1.368,2.676-2.831,2.7-2.194,0-2.209,0-2.194-2.223,0-3.823-.439-3.27,2.831-3.3,2.194,0,2.194,0,2.194,2.223Z" transform="translate(7.708 98.31)" fill="#009cdc"/>
    <path id="Path_88" data-name="Path 88" d="M168.74,251.392c0-3.1-.071-2.676,2.548-2.676s2.506-.34,2.492,2.69c0,3.27.311,2.831-2.831,2.831C168.74,254.251,168.74,254.237,168.74,251.392Z" transform="translate(9.759 98.308)" fill="#009cdc"/>
    <path id="Path_89" data-name="Path 89" d="M178.739,251.5c0,3.115.368,2.7-2.747,2.732-2.237,0-2.265,0-2.237-2.35,0-3.7-.425-3.143,2.916-3.171C179.149,248.686,178.7,248.615,178.739,251.5Z" transform="translate(11.837 98.31)" fill="#009cdc"/>
    <path id="Path_90" data-name="Path 90" d="M183.686,251.434c0,3.157.382,2.831-2.69,2.831-2.293,0-2.308,0-2.293-2.591,0-3.426-.34-2.9,2.831-2.931,2.124,0,2.124,0,2.124,2.124Z" transform="translate(13.897 98.323)" fill="#009cdc"/>
    <path id="Path_91" data-name="Path 91" d="M195.543,251.465c0,3.072.326,2.831-2.449,2.831s-2.52.311-2.506-2.534c0-3.2-.425-3,2.209-2.987C195.882,248.719,195.5,248.28,195.543,251.465Z" transform="translate(18.832 98.32)" fill="#009cdc"/>
    <path id="Path_92" data-name="Path 92" d="M200.466,251.5c0,3.129.354,2.7-2.747,2.732-2.223,0-2.237,0-2.223-2.35,0-3.7-.467-3.143,2.9-3.171C200.876,248.686,200.466,248.6,200.466,251.5Z" transform="translate(20.874 98.31)" fill="#009cdc"/>
    <path id="Path_93" data-name="Path 93" d="M205.461,251.544c0,3.086.3,2.676-2.633,2.69-2.633,0-2.336.212-2.322-2.534,0-3.426-.453-2.959,2.831-2.987,2.18,0,2.18,0,2.18,2.223Z" transform="translate(22.957 98.312)" fill="#009cdc"/>
    <path id="Path_94" data-name="Path 94" d="M237.081,251.545c0,3.072.368,2.662-2.831,2.69-2.194,0-2.209,0-2.194-2.237,0-3.808-.425-3.256,2.831-3.285,2.194,0,2.194,0,2.194,2.223Z" transform="translate(36.074 98.31)" fill="#009cdc"/>
    <path id="Path_95" data-name="Path 95" d="M270.434,251.474c0-3.157-.368-2.747,2.732-2.761,2.223,0,2.237,0,2.223,2.223,0,3.794.481,3.256-2.831,3.285-2.138,0-2.138,0-2.138-2.138Z" transform="translate(52.032 98.311)" fill="#009cdc"/>
    <path id="Path_96" data-name="Path 96" d="M275.373,251.46c0-3.171-.34-2.732,2.747-2.747,2.6,0,2.194-.17,2.209,2.831s.326,2.662-2.676,2.676C275.033,254.235,275.4,254.448,275.373,251.46Z" transform="translate(54.086 98.31)" fill="#009cdc"/>
    <path id="Path_97" data-name="Path 97" d="M285.29,251.587c0,2.987.283,2.633-2.548,2.647s-2.407.241-2.393-2.492c0-3.44-.467-3.016,2.831-3.03C285.658,248.7,285.262,248.529,285.29,251.587Z" transform="translate(56.147 98.311)" fill="#009cdc"/>
    <path id="Path_98" data-name="Path 98" d="M297.09,251.592c0,3.016.184,2.633-2.591,2.647-2.322,0-2.336,0-2.322-2.421,0-3.624-.524-3,3.171-3.129,1.3,0,1.925.311,1.741,1.685a8.734,8.734,0,0,0,0,1.218Z" transform="translate(61.066 98.306)" fill="#009cdc"/>
    <path id="Path_99" data-name="Path 99" d="M366.226,251.4c0-3.03-.326-2.676,2.676-2.69,2.237,0,2.251,0,2.237,2.52,0,3.5.34,2.831-2.987,3.03-1.557.071-2.18-.411-1.925-1.954a6.468,6.468,0,0,0,0-.906Z" transform="translate(91.839 98.312)" fill="#009cdc"/>
    <path id="Path_100" data-name="Path 100" d="M376.1,251.46c0,3.129.368,2.747-2.732,2.761-2.237,0-2.251,0-2.237-2.364,0-3.624-.4-3.115,2.831-3.143C376.514,248.685,376.075,248.642,376.1,251.46Z" transform="translate(93.896 98.311)" fill="#009cdc"/>
    <path id="Path_101" data-name="Path 101" d="M382.807,251.514c0-3.157-.368-2.831,2.69-2.831,2.237,0,2.251,0,2.223,2.336,0,3.681.524,3.072-3.058,3.214-1.416,0-2.1-.368-1.869-1.855a4.842,4.842,0,0,0,.014-.864Z" transform="translate(98.731 98.299)" fill="#009cdc"/>
    <path id="Path_102" data-name="Path 102" d="M392.712,251.474c0,3.115.368,2.732-2.831,2.747-2.237,0-2.251,0-2.237-2.378,0-3.568-.354-3.115,2.7-3.129C393.094,248.685,392.67,248.544,392.712,251.474Z" transform="translate(100.761 98.311)" fill="#009cdc"/>
    <path id="Path_103" data-name="Path 103" d="M392.683,251.459c0-3.1-.326-2.732,2.6-2.747,2.69,0,2.336-.2,2.336,2.69,0,3.185.382,2.831-2.676,2.831C392.329,254.233,392.711,254.418,392.683,251.459Z" transform="translate(102.857 98.312)" fill="#009cdc"/>
    <path id="Path_104" data-name="Path 104" d="M168.843,282.794c0,3.242.411,2.831-2.831,2.831-2.166,0-2.194,0-2.166-2.251,0-3.794-.439-3.242,2.831-3.27C169.226,280.118,168.815,279.962,168.843,282.794Z" transform="translate(7.716 111.36)" fill="#009cdc"/>
    <path id="Path_105" data-name="Path 105" d="M173.8,282.979c0,3.072.241,2.662-2.676,2.676-2.378,0-2.393,0-2.378-2.393,0-3.638-.269-3.1,2.831-3.129C174.136,280.106,173.768,279.95,173.8,282.979Z" transform="translate(9.758 111.373)" fill="#009cdc"/>
    <path id="Path_106" data-name="Path 106" d="M178.739,282.908c0,3.143.382,2.732-2.718,2.747-2.265,0-2.293,0-2.265-2.322,0-3.511-.382-3.2,2.279-3.2C179.121,280.147,178.711,279.75,178.739,282.908Z" transform="translate(11.837 111.374)" fill="#009cdc"/>
    <path id="Path_107" data-name="Path 107" d="M183.689,282.922c0,3.129.382,2.718-2.747,2.732-2.237,0-2.251,0-2.237-2.336,0-3.5-.382-3.185,2.308-3.185C184.085,280.147,183.661,279.75,183.689,282.922Z" transform="translate(13.894 111.374)" fill="#009cdc"/>
    <path id="Path_108" data-name="Path 108" d="M195.54,282.945c0,3.03.3,2.7-2.478,2.7s-2.492.311-2.478-2.662c0-3.284-.411-2.831,2.761-2.831,2.194,0,2.194,0,2.194,2.223Z" transform="translate(18.834 111.379)" fill="#009cdc"/>
    <path id="Path_109" data-name="Path 109" d="M195.513,282.879c0-3.171-.34-2.718,2.732-2.747,2.237,0,2.251,0,2.237,2.322,0,3.5.439,3.2-2.279,3.2C195.174,285.611,195.542,286.064,195.513,282.879Z" transform="translate(20.885 111.374)" fill="#009cdc"/>
    <path id="Path_110" data-name="Path 110" d="M205.462,282.922c0,3.171.326,2.7-2.732,2.732-2.223,0-2.251,0-2.223-2.492,0-3.511-.481-3,2.831-3.03C205.462,280.119,205.462,280.133,205.462,282.922Z" transform="translate(22.956 111.373)" fill="#009cdc"/>
    <path id="Path_111" data-name="Path 111" d="M217.223,283.012c0,3,.227,2.647-2.534,2.647-2.378,0-2.378,0-2.378-2.336,0-3.2,0-3.143,3.2-3.214,1.317,0,1.911.326,1.727,1.685A8.712,8.712,0,0,0,217.223,283.012Z" transform="translate(27.873 111.368)" fill="#009cdc"/>
    <path id="Path_112" data-name="Path 112" d="M237.068,282.908c0,3.143.368,2.732-2.718,2.747-2.265,0-2.279,0-2.265-2.322,0-3.681-.4-3.171,2.732-3.2C237.465,280.119,237.026,279.949,237.068,282.908Z" transform="translate(36.087 111.374)" fill="#009cdc"/>
    <path id="Path_113" data-name="Path 113" d="M248.724,282.907c0,3.171.34,2.718-2.831,2.747-2.194,0-2.223,0-2.194-2.237,0-3.7-.467-3.27,2.534-3.285C249.063,280.133,248.7,279.821,248.724,282.907Z" transform="translate(40.911 111.374)" fill="#009cdc"/>
    <path id="Path_114" data-name="Path 114" d="M253.641,282.862c0,3.129.354,2.761-2.577,2.831-2.633,0-2.393.283-2.378-2.52,0-3.5-.439-2.959,2.959-3,2,0,2,0,2,2Z" transform="translate(42.988 111.391)" fill="#009cdc"/>
    <path id="Path_115" data-name="Path 115" d="M258.615,283.016c0,3,.269,2.619-2.577,2.633s-2.393.255-2.378-2.662c0-3.27-.425-2.831,2.831-2.831,2.166,0,2.166,0,2.166,2.138Z" transform="translate(45.049 111.379)" fill="#009cdc"/>
    <path id="Path_116" data-name="Path 116" d="M275.391,282.862c0,3.185.34,2.747-2.732,2.831-2.223,0-2.251,0-2.223-2.506,0-3.5-.467-2.973,2.945-3.016,2.01,0,2.01,0,2.01,1.982Z" transform="translate(52.029 111.392)" fill="#009cdc"/>
    <path id="Path_117" data-name="Path 117" d="M275.373,282.893c0-3.129-.326-2.747,2.591-2.761,2.647,0,2.378-.241,2.364,2.534,0,3.44.439,2.959-2.831,2.987C275.005,285.611,275.4,285.8,275.373,282.893Z" transform="translate(54.086 111.374)" fill="#009cdc"/>
    <path id="Path_118" data-name="Path 118" d="M280.334,282.945c0-3.185-.382-2.831,2.7-2.831,2.265,0,2.265,0,2.265,2.35,0,3.171,0,3.171-2.945,3.171-2.024,0-2.024,0-2.024-1.968Z" transform="translate(56.147 111.365)" fill="#009cdc"/>
    <path id="Path_119" data-name="Path 119" d="M292.173,282.713V281.3c-.085-.934.34-1.232,1.246-1.218,4.36.1,3.582-.609,3.653,3.511,0,2.025,0,2.039-2.081,2.025C291.734,285.63,292.216,286.111,292.173,282.713Z" transform="translate(61.071 111.356)" fill="#009cdc"/>
    <path id="Path_120" data-name="Path 120" d="M302.068,283.077a6.454,6.454,0,0,0,0,.906c.184,1.317-.326,1.741-1.685,1.713-3.313-.071-3.313,0-3.313-3.256,0-2.293,0-2.293,2.293-2.293a6.618,6.618,0,0,0,.75,0c1.416-.241,2.209.283,1.954,1.869a6.627,6.627,0,0,0,0,1.062Z" transform="translate(63.111 111.36)" fill="#009cdc"/>
    <path id="Path_121" data-name="Path 121" d="M307.021,282.893c0,3.185.241,2.747-2.732,2.761-2.308,0-2.308,0-2.308-2.449,0-3.525-.241-3.044,2.747-3.072C307.021,280.118,307.021,280.132,307.021,282.893Z" transform="translate(65.151 111.374)" fill="#009cdc"/>
    <path id="Path_122" data-name="Path 122" d="M311.963,283c0,3.016.34,2.647-2.647,2.662-2.577,0-2.336.269-2.322-2.7,0-3.285-.311-2.831,2.831-2.831C312.373,280.126,311.934,279.956,311.963,283Z" transform="translate(67.232 111.366)" fill="#009cdc"/>
    <path id="Path_123" data-name="Path 123" d="M316.914,282.852c0,3.157.382,2.831-2.676,2.831-2.308,0-2.322,0-2.293-2.421,0-3.61-.425-3.058,2.987-3.1,1.982,0,1.982,0,1.982,1.982Z" transform="translate(69.288 111.387)" fill="#009cdc"/>
    <path id="Path_124" data-name="Path 124" d="M323.583,282.892c0,3.086.368,2.747-2.577,2.761-2.633,0-2.364.227-2.35-2.534,0-3.454-.467-2.945,2.945-2.987,1.968,0,1.968,0,1.982,2Z" transform="translate(72.076 111.375)" fill="#009cdc"/>
    <path id="Path_125" data-name="Path 125" d="M328.537,282.852c0,3.143.4,2.831-2.69,2.831-2.293,0-2.308,0-2.293-2.435,0-3.582-.354-3.044,2.831-3.086,2.124,0,2.124,0,2.124,2.138Z" transform="translate(74.116 111.387)" fill="#009cdc"/>
    <path id="Path_126" data-name="Path 126" d="M333.457,282.908c0,3.016.354,2.747-2.449,2.747s-2.506.326-2.492-2.534c0-3.2-.4-2.987,2.209-2.987C333.868,280.147,333.457,279.75,333.457,282.908Z" transform="translate(76.175 111.374)" fill="#009cdc"/>
    <path id="Path_127" data-name="Path 127" d="M338.46,282.936c0,3.072.326,2.7-2.633,2.718-2.6,0-2.336.241-2.322-2.577,0-3.412-.411-2.916,2.831-2.945,2.081,0,2.081,0,2.1,2.039Z" transform="translate(78.251 111.374)" fill="#009cdc"/>
    <path id="Path_128" data-name="Path 128" d="M338.454,282.921c0-3.157-.368-2.747,2.732-2.831,2.223,0,2.237,0,2.223,2.223,0,3.752.453,3.27-2.662,3.3C338.072,285.626,338.482,285.866,338.454,282.921Z" transform="translate(80.31 111.36)" fill="#009cdc"/>
    <path id="Path_129" data-name="Path 129" d="M371.126,282.977c0,3.03.2,2.676-2.548,2.676s-2.364.212-2.35-2.534c0-3.37-.425-2.959,2.676-2.987,2.223,0,2.223,0,2.223,2.237Z" transform="translate(91.852 111.376)" fill="#009cdc"/>
    <path id="Path_130" data-name="Path 130" d="M371.131,282.776c0-3-.227-2.619,2.577-2.633s2.407-.227,2.393,2.506c0,3.469.467,2.987-2.945,3.016-2.024,0-2.024,0-2.024-1.968Z" transform="translate(93.899 111.378)" fill="#009cdc"/>
    <path id="Path_131" data-name="Path 131" d="M392.684,282.894c0-2.959-.34-2.761,2.279-2.761,3,0,2.662-.354,2.662,2.69s.382,2.831-2.364,2.831S392.713,286.009,392.684,282.894Z" transform="translate(102.855 111.373)" fill="#009cdc"/>
    <path id="Path_132" data-name="Path 132" d="M380.9,251.521c0,3.143.113,2.69-2.662,2.7-2.209,0-2.223,0-2.209-2.265,0-3.808-.382-3.157,3.2-3.27,1.232,0,1.812.326,1.671,1.614A11.64,11.64,0,0,0,380.9,251.521Z" transform="translate(95.934 98.306)" fill="#009cdc"/>
    <path id="Path_133" data-name="Path 133" d="M376.013,282.789c0-3.129-.085-2.647,2.7-2.676,2.166,0,2.18,0,2.166,2.308,0,3.752.354,3.1-3.086,3.242-1.416.071-1.968-.425-1.8-1.812a8.8,8.8,0,0,0,.014-1.062Z" transform="translate(95.912 111.365)" fill="#009cdc"/>
    <path id="Path_134" data-name="Path 134" d="M348.033,270.276a2.265,2.265,0,0,1-3.469,2.138,1.161,1.161,0,0,1-.5-.821c-.071-.708,0-1.416,0-2.124-.156-1.3.411-1.656,1.656-1.628C348.033,267.911,348.033,267.855,348.033,270.276Z" transform="translate(82.637 106.267)" fill="#009cdc"/>
    <path id="Path_135" data-name="Path 135" d="M359.585,270.2c-.17.708-.17,1.94-.524,2.039a8.877,8.877,0,0,1-3.129.127c-.184,0-.411-.524-.453-.821a9.162,9.162,0,0,1,0-1.529c0-2.152,0-2.152,2.138-2.152C359.443,267.86,359.443,267.86,359.585,270.2Z" transform="translate(87.381 106.276)" fill="#009cdc"/>
    <path id="Path_136" data-name="Path 136" d="M351.679,270.259a2.124,2.124,0,0,1-3.27,2.138,1.317,1.317,0,0,1-.538-.949,20.4,20.4,0,0,1,0-2.279,1.188,1.188,0,0,1,1.345-1.317C351.679,267.824,351.679,267.781,351.679,270.259Z" transform="translate(84.215 106.27)" fill="#009cdc"/>
    <path id="Path_137" data-name="Path 137" d="M355.843,270.187c-.3,2.194-1.586,3.086-3.525,2.293a1.161,1.161,0,0,1-.566-.779,6.182,6.182,0,0,1,0-1.416c0-2.378.821-3.086,3.1-2.308C355.334,268.22,355.5,269.437,355.843,270.187Z" transform="translate(85.827 106.199)" fill="#009cdc"/>
    <path id="Path_138" data-name="Path 138" d="M363.149,270.2c0,2.18-1.033,2.931-3.185,2.223a1.2,1.2,0,0,1-.637-.849,10.165,10.165,0,0,1,0-2.7c0-.382.623-.68.991-.991.085-.071.3,0,.439,0C363.149,267.823,363.149,267.823,363.149,270.2Z" transform="translate(88.956 106.271)" fill="#009cdc"/>
  </g>
</svg>
